<svg xmlns="http://www.w3.org/2000/svg" viewBox="0 0 900 620" width="900" height="620" font-family="ui-monospace,SFMono-Regular,monospace">
  <defs>
    <linearGradient id="bg" x1="0" y1="0" x2="0" y2="1">
      <stop offset="0%" stop-color="#0f172a"/>
      <stop offset="100%" stop-color="#0a0f1e"/>
    </linearGradient>
    <linearGradient id="janusGrad" x1="0" y1="0" x2="1" y2="1">
      <stop offset="0%" stop-color="#4f46e5"/>
      <stop offset="100%" stop-color="#7c3aed"/>
    </linearGradient>
  </defs>

  <!-- Background -->
  <rect width="900" height="620" fill="url(#bg)" rx="12"/>

  <!-- Title -->
  <text x="450" y="36" text-anchor="middle" fill="#e2e8f0" font-size="20" font-weight="bold" letter-spacing="2">JANUS — TRAEFIK SECURITY BRIDGE</text>
  <text x="450" y="54" text-anchor="middle" fill="#6366f1" font-size="11" letter-spacing="1">v0.8.0 · AI-Powered Active Defense Sidecar</text>

  <!-- ── TRAEFIK (left) ── -->
  <rect x="30" y="80" width="160" height="220" rx="8" fill="#0f172a" stroke="#334155" stroke-width="1.5"/>
  <text x="110" y="102" text-anchor="middle" fill="#94a3b8" font-size="10" font-weight="bold" letter-spacing="1">TRAEFIK</text>
  <line x1="30" y1="110" x2="190" y2="110" stroke="#334155" stroke-width="1"/>
  <text x="50" y="130" fill="#64748b" font-size="9">/api/rawdata</text>
  <text x="50" y="146" fill="#64748b" font-size="9">/api/overview</text>
  <text x="50" y="162" fill="#64748b" font-size="9">/metrics (Prometheus)</text>
  <text x="50" y="178" fill="#64748b" font-size="9">/ping</text>
  <line x1="40" y1="190" x2="180" y2="190" stroke="#1e293b" stroke-width="1"/>
  <text x="50" y="208" fill="#64748b" font-size="9">access.log (JSON)</text>
  <text x="50" y="224" fill="#64748b" font-size="9">rules/ (file provider)</text>
  <text x="50" y="240" fill="#64748b" font-size="9">janus-shield@file</text>
  <text x="50" y="278" fill="#475569" font-size="8" font-style="italic">proxy-network</text>

  <!-- ── vLLM (right) ── -->
  <rect x="710" y="80" width="160" height="140" rx="8" fill="#0f172a" stroke="#334155" stroke-width="1.5"/>
  <text x="790" y="102" text-anchor="middle" fill="#94a3b8" font-size="10" font-weight="bold" letter-spacing="1">vLLM / QWEN</text>
  <line x1="710" y1="110" x2="870" y2="110" stroke="#334155" stroke-width="1"/>
  <text x="730" y="130" fill="#64748b" font-size="9">OpenAI-compat API</text>
  <text x="730" y="146" fill="#64748b" font-size="9">100k token context</text>
  <text x="730" y="162" fill="#64748b" font-size="9">Security audit prompt</text>
  <text x="730" y="178" fill="#64748b" font-size="9">Intel threat prompt</text>
  <text x="730" y="194" fill="#64748b" font-size="9">Ban review prompt</text>
  <text x="730" y="208" fill="#475569" font-size="8" font-style="italic">ai-network</text>

  <!-- ── MaxMind (right lower) ── -->
  <rect x="710" y="240" width="160" height="70" rx="8" fill="#0f172a" stroke="#334155" stroke-width="1.5"/>
  <text x="790" y="262" text-anchor="middle" fill="#94a3b8" font-size="10" font-weight="bold" letter-spacing="1">MAXMIND</text>
  <line x1="710" y1="270" x2="870" y2="270" stroke="#334155" stroke-width="1"/>
  <text x="730" y="288" fill="#64748b" font-size="9">GeoLite2-City.mmdb</text>
  <text x="730" y="304" fill="#64748b" font-size="9">Country · City · ASN</text>

  <!-- ── JANUS CORE (center) ── -->
  <rect x="220" y="68" width="460" height="400" rx="10" fill="url(#janusGrad)" fill-opacity="0.08" stroke="#4f46e5" stroke-width="1.5"/>
  <text x="450" y="90" text-anchor="middle" fill="#818cf8" font-size="13" font-weight="bold" letter-spacing="2">JANUS CORE</text>

  <!-- Infrastructure layer -->
  <rect x="235" y="98" width="430" height="50" rx="6" fill="#1e1b4b" fill-opacity="0.6" stroke="#3730a3" stroke-width="1"/>
  <text x="450" y="115" text-anchor="middle" fill="#a5b4fc" font-size="9" font-weight="bold" letter-spacing="1">INFRASTRUCTURE</text>
  <text x="255" y="132" fill="#6366f1" font-size="8">Traefik Client</text>
  <text x="330" y="132" fill="#6366f1" font-size="8">LLM Client</text>
  <text x="400" y="132" fill="#6366f1" font-size="8">GeoIP Reader</text>
  <text x="480" y="132" fill="#6366f1" font-size="8">Log Tailer</text>
  <text x="545" y="132" fill="#6366f1" font-size="8">Shield Svc</text>
  <text x="608" y="132" fill="#6366f1" font-size="8">SQLite</text>

  <!-- Domain layer -->
  <rect x="235" y="158" width="430" height="35" rx="6" fill="#172554" fill-opacity="0.6" stroke="#1e40af" stroke-width="1"/>
  <text x="450" y="172" text-anchor="middle" fill="#93c5fd" font-size="9" font-weight="bold" letter-spacing="1">DOMAIN</text>
  <text x="270" y="185" fill="#3b82f6" font-size="8">AuditReport</text>
  <text x="345" y="185" fill="#3b82f6" font-size="8">RouterAudit</text>
  <text x="420" y="185" fill="#3b82f6" font-size="8">AIInsights</text>
  <text x="490" y="185" fill="#3b82f6" font-size="8">Policy</text>
  <text x="540" y="185" fill="#3b82f6" font-size="8">DriftAlert</text>
  <text x="600" y="185" fill="#3b82f6" font-size="8">ThreatReport</text>

  <!-- App layer -->
  <rect x="235" y="203" width="430" height="95" rx="6" fill="#14532d" fill-opacity="0.3" stroke="#166534" stroke-width="1"/>
  <text x="450" y="218" text-anchor="middle" fill="#86efac" font-size="9" font-weight="bold" letter-spacing="1">APPLICATION</text>

  <rect x="248" y="224" width="90" height="28" rx="4" fill="#14532d" fill-opacity="0.6" stroke="#166534" stroke-width="1"/>
  <text x="293" y="235" text-anchor="middle" fill="#4ade80" font-size="8">AIAuditWorker</text>
  <text x="293" y="246" text-anchor="middle" fill="#64748b" font-size="7">60 s ticker</text>

  <rect x="348" y="224" width="90" height="28" rx="4" fill="#14532d" fill-opacity="0.6" stroke="#166534" stroke-width="1"/>
  <text x="393" y="235" text-anchor="middle" fill="#4ade80" font-size="8">BanReviewWorker</text>
  <text x="393" y="246" text-anchor="middle" fill="#64748b" font-size="7">30 min ticker</text>

  <rect x="448" y="224" width="95" height="28" rx="4" fill="#14532d" fill-opacity="0.6" stroke="#166534" stroke-width="1"/>
  <text x="496" y="235" text-anchor="middle" fill="#4ade80" font-size="8">ThreatIntelService</text>
  <text x="496" y="246" text-anchor="middle" fill="#64748b" font-size="7">on-demand</text>

  <rect x="553" y="224" width="100" height="28" rx="4" fill="#14532d" fill-opacity="0.6" stroke="#166534" stroke-width="1"/>
  <text x="603" y="235" text-anchor="middle" fill="#4ade80" font-size="8">ConsultService</text>
  <text x="603" y="246" text-anchor="middle" fill="#64748b" font-size="7">history summary</text>

  <rect x="248" y="260" width="120" height="28" rx="4" fill="#14532d" fill-opacity="0.6" stroke="#166534" stroke-width="1"/>
  <text x="308" y="271" text-anchor="middle" fill="#4ade80" font-size="8">Policy Engine</text>
  <text x="308" y="282" text-anchor="middle" fill="#64748b" font-size="7">CheckPolicies · DetectDrift</text>

  <rect x="378" y="260" width="120" height="28" rx="4" fill="#14532d" fill-opacity="0.6" stroke="#166534" stroke-width="1"/>
  <text x="438" y="271" text-anchor="middle" fill="#4ade80" font-size="8">Remediation</text>
  <text x="438" y="282" text-anchor="middle" fill="#64748b" font-size="7">FormatDockerLabels</text>

  <rect x="508" y="260" width="145" height="28" rx="4" fill="#14532d" fill-opacity="0.6" stroke="#166534" stroke-width="1"/>
  <text x="580" y="271" text-anchor="middle" fill="#4ade80" font-size="8">TrafficAnalyzer</text>
  <text x="580" y="282" text-anchor="middle" fill="#64748b" font-size="7">Top-20 heavy hitters · 1 h window</text>

  <!-- HTTP / API layer -->
  <rect x="235" y="308" width="430" height="50" rx="6" fill="#451a03" fill-opacity="0.5" stroke="#92400e" stroke-width="1"/>
  <text x="450" y="322" text-anchor="middle" fill="#fcd34d" font-size="9" font-weight="bold" letter-spacing="1">HTTP API  (Go 1.22 mux)</text>
  <text x="250" y="340" fill="#d97706" font-size="7">/api/status</text>
  <text x="305" y="340" fill="#d97706" font-size="7">/ai-insights</text>
  <text x="370" y="340" fill="#d97706" font-size="7">/shield/*</text>
  <text x="425" y="340" fill="#d97706" font-size="7">/intel/*</text>
  <text x="475" y="340" fill="#d97706" font-size="7">/history</text>
  <text x="522" y="340" fill="#d97706" font-size="7">/trend</text>
  <text x="565" y="340" fill="#d97706" font-size="7">/ai/consult</text>
  <text x="625" y="340" fill="#d97706" font-size="7">//go:embed</text>

  <!-- Embedded SPA -->
  <rect x="235" y="368" width="430" height="88" rx="6" fill="#1a1a2e" fill-opacity="0.8" stroke="#312e81" stroke-width="1"/>
  <text x="450" y="382" text-anchor="middle" fill="#a5b4fc" font-size="9" font-weight="bold" letter-spacing="1">EMBEDDED SPA  (Tailwind · Dark Mode)</text>
  <rect x="248" y="389" width="88" height="20" rx="3" fill="#312e81" fill-opacity="0.7"/>
  <text x="292" y="403" text-anchor="middle" fill="#818cf8" font-size="8">Dashboard</text>
  <rect x="344" y="389" width="88" height="20" rx="3" fill="#312e81" fill-opacity="0.4"/>
  <text x="388" y="403" text-anchor="middle" fill="#6366f1" font-size="8">Policies</text>
  <rect x="440" y="389" width="88" height="20" rx="3" fill="#312e81" fill-opacity="0.4"/>
  <text x="484" y="403" text-anchor="middle" fill="#6366f1" font-size="8">Shield</text>
  <rect x="536" y="389" width="116" height="20" rx="3" fill="#312e81" fill-opacity="0.4"/>
  <text x="594" y="403" text-anchor="middle" fill="#6366f1" font-size="8">Intelligence</text>
  <text x="255" y="430" fill="#475569" font-size="8">Score ring · Router cards · Pulse bars · Drift banner · Copy Fix · Sparklines · IP table</text>
  <text x="255" y="444" fill="#475569" font-size="8">Hostile clusters · Attacker nations · AI verdicts · Block/Unblock · Download Report</text>

  <!-- ── TELEGRAM (bottom left) ── -->
  <rect x="30" y="500" width="160" height="80" rx="8" fill="#0f172a" stroke="#334155" stroke-width="1.5"/>
  <text x="110" y="522" text-anchor="middle" fill="#94a3b8" font-size="10" font-weight="bold" letter-spacing="1">TELEGRAM</text>
  <line x1="30" y1="530" x2="190" y2="530" stroke="#334155" stroke-width="1"/>
  <text x="50" y="548" fill="#64748b" font-size="9">Threat alert (sev &gt;= 8)</text>
  <text x="50" y="564" fill="#64748b" font-size="9">Auto-ban alert</text>
  <text x="50" y="580" fill="#64748b" font-size="9">Drift alert</text>

  <!-- ── STORAGE (bottom center) ── -->
  <rect x="340" y="500" width="220" height="80" rx="8" fill="#0f172a" stroke="#334155" stroke-width="1.5"/>
  <text x="450" y="522" text-anchor="middle" fill="#94a3b8" font-size="10" font-weight="bold" letter-spacing="1">STORAGE</text>
  <line x1="340" y1="530" x2="560" y2="530" stroke="#334155" stroke-width="1"/>
  <text x="360" y="548" fill="#64748b" font-size="9">SQLite  audits + router_results</text>
  <text x="360" y="564" fill="#64748b" font-size="9">JSONL  ai_audit_trace.json</text>
  <text x="360" y="580" fill="#64748b" font-size="9">YAML   rules/blocklist.yaml</text>

  <!-- ── BROWSER (bottom right) ── -->
  <rect x="710" y="500" width="160" height="80" rx="8" fill="#0f172a" stroke="#334155" stroke-width="1.5"/>
  <text x="790" y="522" text-anchor="middle" fill="#94a3b8" font-size="10" font-weight="bold" letter-spacing="1">BROWSER</text>
  <line x1="710" y1="530" x2="870" y2="530" stroke="#334155" stroke-width="1"/>
  <text x="730" y="548" fill="#64748b" font-size="9">localhost:9090</text>
  <text x="730" y="564" fill="#64748b" font-size="9">30 s auto-refresh</text>
  <text x="730" y="580" fill="#64748b" font-size="9">Portainer-friendly</text>

  <!-- ── ARROWS ── -->
  <!-- Traefik → Janus API poll -->
  <line x1="190" y1="155" x2="235" y2="155" stroke="#4f46e5" stroke-width="1.5" stroke-dasharray="4,3"/>
  <polygon points="233,151 241,155 233,159" fill="#4f46e5"/>
  <text x="193" y="150" fill="#4f46e5" font-size="7">poll</text>

  <!-- Traefik ← Janus blocklist write -->
  <line x1="190" y1="228" x2="235" y2="228" stroke="#ef4444" stroke-width="1.5" stroke-dasharray="4,3"/>
  <polygon points="192,224 184,228 192,232" fill="#ef4444"/>
  <text x="192" y="222" fill="#ef4444" font-size="7">write</text>

  <!-- vLLM ↔ Janus -->
  <line x1="665" y1="148" x2="710" y2="148" stroke="#8b5cf6" stroke-width="1.5" stroke-dasharray="4,3"/>
  <polygon points="708,144 716,148 708,152" fill="#8b5cf6"/>
  <polygon points="667,144 659,148 667,152" fill="#8b5cf6"/>

  <!-- GeoIP → Janus -->
  <line x1="665" y1="275" x2="710" y2="275" stroke="#0ea5e9" stroke-width="1.5" stroke-dasharray="4,3"/>
  <polygon points="667,271 659,275 667,279" fill="#0ea5e9"/>

  <!-- Janus → Telegram -->
  <line x1="340" y1="510" x2="190" y2="510" stroke="#f59e0b" stroke-width="1.5" stroke-dasharray="4,3"/>
  <polygon points="192,506 184,510 192,514" fill="#f59e0b"/>

  <!-- Janus → Storage -->
  <line x1="450" y1="456" x2="450" y2="500" stroke="#10b981" stroke-width="1.5" stroke-dasharray="4,3"/>
  <polygon points="446,498 450,506 454,498" fill="#10b981"/>

  <!-- Janus → Browser -->
  <line x1="660" y1="420" x2="720" y2="510" stroke="#6366f1" stroke-width="1.5" stroke-dasharray="4,3"/>
  <polygon points="717,506 724,514 722,505" fill="#6366f1"/>

  <!-- Legend -->
  <text x="30" y="612" fill="#334155" font-size="8">-- poll / read</text>
  <text x="110" y="612" fill="#ef4444" font-size="8">-- write (blocklist)</text>
  <text x="230" y="612" fill="#8b5cf6" font-size="8">-- AI inference</text>
  <text x="330" y="612" fill="#f59e0b" font-size="8">-- alert</text>
  <text x="395" y="612" fill="#10b981" font-size="8">-- persist</text>
  <text x="460" y="612" fill="#6366f1" font-size="8">-- serve</text>
  <text x="680" y="612" fill="#475569" font-size="8">github.com/janus-project/janus</text>
</svg>
